<svg width="288" height="503" viewBox="0 0 288 503" fill="none" xmlns="http://www.w3.org/2000/svg">
<path d="M232.394 146.634L217.261 135.801C214.867 134.087 211.536 134.638 209.822 137.033L198.988 152.166C197.274 154.56 197.826 157.891 200.22 159.605L215.353 170.439C217.748 172.153 221.079 171.601 222.793 169.207L233.626 154.074C235.34 151.679 234.789 148.348 232.394 146.634Z" fill="#FEE383"/>
<path d="M205.727 11.1075L194.547 3.10381C192.152 1.38962 188.822 1.94117 187.107 4.33573L179.104 15.5161C177.39 17.9107 177.941 21.2415 180.336 22.9556L191.516 30.9593C193.911 32.6735 197.241 32.1219 198.956 29.7274L206.959 18.547C208.674 16.1524 208.122 12.8217 205.727 11.1075Z" fill="#2CC990"/>
<path opacity="0.25" d="M51.043 33.5385L33.0309 16.1085C32.5498 15.6428 32.2175 15.0449 32.0762 14.3903C31.9349 13.7358 31.9909 13.0541 32.2371 12.4314C32.4833 11.8087 32.9087 11.273 33.4594 10.8921C34.0101 10.5112 34.6614 10.3021 35.3309 10.2915L53.0519 10.0005C53.9496 9.98575 54.8163 10.3282 55.4614 10.9525C56.1065 11.5768 56.4772 12.4318 56.4919 13.3294L56.783 31.0505C56.7942 31.7202 56.6066 32.3781 56.2437 32.9411C55.8809 33.5041 55.3592 33.9468 54.7446 34.2132C54.1301 34.4796 53.4504 34.5577 52.7914 34.4375C52.1325 34.3174 51.524 34.0045 51.043 33.5385Z" fill="white"/>
<path d="M23.9254 160.257L41.1624 142.057C41.6228 141.571 42.2169 141.232 42.8697 141.084C43.5225 140.936 44.2046 140.984 44.8298 141.224C45.455 141.463 45.9952 141.882 46.382 142.429C46.7689 142.975 46.9852 143.624 47.0034 144.293L47.4834 162.01C47.5076 162.907 47.1743 163.777 46.557 164.429C45.9396 165.081 45.0887 165.461 44.1914 165.485L26.4744 165.965C25.8057 165.983 25.1466 165.802 24.5806 165.446C24.0146 165.089 23.5669 164.573 23.2941 163.962C23.0213 163.351 22.9357 162.673 23.0481 162.014C23.1604 161.354 23.4657 160.743 23.9254 160.257Z" fill="#FF463E"/>
<path d="M15.8093 109.616L58.7975 100.622C64.9531 99.3344 68.8992 93.3005 67.6114 87.1452C66.3236 80.9899 60.2895 77.044 54.1339 78.3319L11.1457 87.3259C4.99011 88.6138 1.044 94.6477 2.33182 100.803C3.61964 106.958 9.65371 110.904 15.8093 109.616Z" fill="#FEE383"/>
<path opacity="0.25" d="M281.255 92.8584L258.142 73.4566C254.552 70.443 249.199 70.9103 246.185 74.5004L242.457 78.9419C239.443 82.532 239.91 87.8853 243.5 90.8989L266.614 110.301C270.204 113.314 275.557 112.847 278.571 109.257L282.299 104.815C285.312 101.225 284.845 95.872 281.255 92.8584Z" fill="white"/>
<path opacity="0.25" d="M125.035 158.878C132.222 158.878 138.048 153.052 138.048 145.865C138.048 138.678 132.222 132.852 125.035 132.852C117.848 132.852 112.022 138.678 112.022 145.865C112.022 153.052 117.848 158.878 125.035 158.878Z" fill="white"/>
<path d="M238.004 335.498C238.004 339.344 236.476 343.032 233.757 345.751C231.038 348.47 227.35 349.998 223.504 349.998H223.004V365.498C223.003 370.572 221.361 375.509 218.322 379.572C215.283 383.634 211.011 386.604 206.144 388.038L172.404 488.698C166.074 507.598 128.934 507.598 122.604 488.698L88.864 388.038C83.9972 386.604 79.725 383.634 76.686 379.572C73.647 375.509 72.0045 370.572 72.004 365.498V349.998H71.504C68.3382 349.999 65.259 348.964 62.7368 347.05C60.2145 345.137 58.3878 342.451 57.5354 339.402C56.6831 336.353 56.852 333.109 58.0164 330.165C59.1808 327.221 61.2767 324.739 63.984 323.098C64.034 323.298 64.094 323.498 64.164 323.698C66.6038 322.575 69.2582 321.995 71.944 321.998H134.314C136.574 321.998 138.741 322.896 140.338 324.494C141.936 326.092 142.834 328.258 142.834 330.518V363.178C142.834 364.291 143.071 365.39 143.53 366.404C143.988 367.417 144.658 368.322 145.493 369.056C146.329 369.79 147.311 370.338 148.376 370.663C149.44 370.987 150.561 371.081 151.664 370.938C153.578 370.652 155.323 369.682 156.575 368.207C157.828 366.732 158.502 364.853 158.474 362.918V329.298C158.476 327.405 159.213 325.586 160.53 324.226C161.847 322.865 163.642 322.07 165.534 322.008C166.528 322.006 167.513 322.202 168.432 322.583C169.35 322.965 170.184 323.525 170.884 324.231C171.584 324.937 172.138 325.774 172.512 326.696C172.886 327.617 173.074 328.604 173.064 329.598V345.458C173.065 347.307 173.43 349.138 174.138 350.846C174.847 352.554 175.885 354.106 177.194 355.413C178.502 356.719 180.055 357.755 181.764 358.461C183.473 359.168 185.305 359.53 187.154 359.528C187.374 359.528 187.594 359.528 187.814 359.518C191.473 359.278 194.901 357.646 197.393 354.956C199.885 352.267 201.253 348.725 201.214 345.058V333.728C201.214 332.188 201.517 330.662 202.106 329.239C202.696 327.816 203.56 326.522 204.649 325.433C205.738 324.344 207.032 323.48 208.455 322.89C209.878 322.301 211.404 321.998 212.944 321.998H223.114C224.967 321.995 226.811 322.268 228.584 322.808C228.724 322.569 228.851 322.322 228.964 322.068C231.638 323.151 233.927 325.008 235.537 327.401C237.148 329.794 238.007 332.613 238.004 335.498Z" fill="#F0B96C"/>
<path opacity="0.25" d="M229.86 322.481L229.732 322.42C229.292 322.21 228.841 322.022 228.382 321.858C228.311 321.833 228.242 321.805 228.171 321.781C227.696 321.62 227.214 321.483 226.725 321.371C226.679 321.36 226.634 321.345 226.587 321.335C225.574 321.114 224.541 321.002 223.504 321H215.184L215.163 320.983C214.678 320.549 214.174 320.138 213.654 319.745C213.448 319.589 213.23 319.445 213.019 319.3C212.694 319.071 212.37 318.842 212.034 318.629C211.757 318.454 211.47 318.295 211.186 318.129C210.902 317.963 210.624 317.806 210.336 317.656C210.006 317.484 209.669 317.326 209.33 317.17C209.079 317.054 208.83 316.939 208.57 316.832C208.193 316.674 207.811 316.526 207.425 316.389C207.201 316.309 206.975 316.233 206.748 316.16C206.325 316.022 205.9 315.894 205.467 315.781C205.275 315.731 205.081 315.688 204.887 315.643C204.415 315.532 203.942 315.428 203.46 315.343C203.318 315.319 203.174 315.304 203.031 315.283C201.864 315.099 200.685 315.002 199.504 314.995H95.504C91.5028 314.995 87.5688 316.024 84.08 317.983L83.934 318.064C82.463 318.891 81.0851 319.874 79.824 320.995H71.504C68.8139 320.993 66.1764 321.74 63.8872 323.154C61.5981 324.567 59.7479 326.589 58.544 328.995H58.581C57.7154 330.695 57.1973 332.55 57.057 334.452L71.009 348.752L69.844 349.889C70.395 349.954 70.9492 349.987 71.504 349.989H72.004V356.161L75.204 353.045L91.414 369.662L78.791 381.975C80.2116 383.42 81.8125 384.675 83.554 385.711L95.603 373.957L111.813 390.574L95.196 406.784L95.137 406.724L99.524 419.813L111.3 431.886L105.475 437.569L107.592 443.885L115.492 436.185L131.702 452.802L115.777 468.338L120.877 483.562L131.177 494.123L128.393 496.838C130.008 498.137 131.784 499.222 133.678 500.065L135.366 498.417L138.641 501.775C141.726 502.55 144.9 502.914 148.08 502.859L139.661 494.228L156.279 478.018L160.285 482.125L155.404 496.7C154.67 498.883 153.499 500.894 151.964 502.61C160.315 501.598 168.007 497.71 171.435 490.967C171.51 490.822 171.583 490.676 171.654 490.529C171.744 490.34 171.833 490.151 171.915 489.958C172.093 489.549 172.26 489.133 172.405 488.702L173.091 486.654L181.385 461.911L183.528 455.516L185.557 449.462L186.483 446.701L206.143 388.038C206.423 387.956 206.693 387.851 206.969 387.758C212.736 385.823 217.531 381.73 220.347 376.338C220.561 375.926 220.763 375.507 220.954 375.082C221.067 374.83 221.168 374.573 221.272 374.316C221.376 374.059 221.483 373.791 221.58 373.524C221.671 373.274 221.759 373.024 221.842 372.77C221.951 372.436 222.049 372.097 222.142 371.756C222.195 371.566 222.255 371.378 222.303 371.186C222.433 370.665 222.541 370.136 222.636 369.602C222.669 369.417 222.694 369.231 222.722 369.045C222.785 368.634 222.837 368.221 222.878 367.804C222.895 367.624 222.914 367.445 222.928 367.264C222.971 366.68 223.001 366.092 223.001 365.497V349.997H223.501C226.779 349.999 229.96 348.889 232.526 346.849C235.092 344.809 236.89 341.96 237.628 338.766C238.365 335.573 237.999 332.223 236.587 329.265C235.176 326.307 232.803 323.914 229.857 322.478L229.86 322.481ZM189.144 396.038L188.781 397.121L177.814 407.821L161.604 391.203L178.222 374.993L194.431 391.611L190.288 395.652C189.904 395.786 189.532 395.926 189.144 396.038ZM172.871 444.588L161.091 432.513L177.709 416.303L181.164 419.845L172.871 444.588ZM174.032 370.697L157.415 386.908L141.204 370.291L157.821 354.081L174.032 370.697ZM162.117 349.89L178.735 333.68L194.944 350.297L178.327 366.507L162.117 349.89ZM137.017 365.99L120.804 349.379L137.422 333.169L153.632 349.787L137.017 365.99ZM153.122 391.09L136.504 407.308L120.294 390.691L136.911 374.481L153.122 391.09ZM157.311 395.385L173.521 412.002L156.904 428.22L140.694 411.603L157.311 395.385ZM182.011 412.107L184.611 409.568L183.311 413.444L182.011 412.107ZM198.733 387.413L182.523 370.796L199.141 354.586L206.011 361.629V373.492C206.009 376.336 205.488 379.156 204.474 381.814L198.733 387.413ZM210.333 357.466L203.433 350.396L218.64 335.562C219.892 337.473 220.673 339.654 220.92 341.925C221.168 344.196 220.874 346.493 220.064 348.629C219.253 350.765 217.949 352.679 216.257 354.214C214.565 355.749 212.533 356.862 210.329 357.462L210.333 357.466ZM198.184 329H206.504C209.302 328.998 212.04 329.81 214.384 331.337L199.239 346.11L183.03 329.492L188.801 323.863C192.283 324.83 195.494 326.588 198.184 329ZM181.093 323L178.84 325.2L176.696 323H181.093ZM168.315 323L174.545 329.387L157.928 345.597L141.718 328.98L147.848 323H168.315ZM139.255 323L137.528 324.685L135.884 323H139.255ZM127.503 323L133.233 328.874L116.616 345.084L100.404 328.467L106.004 323H127.503ZM97.418 323L96.218 324.172L95.075 323H97.418ZM60.118 329H62.827C67.1316 325.129 72.7181 322.992 78.507 323H86.694L91.925 328.361L75.304 344.571L60.118 329ZM79.497 348.866L96.114 332.656L112.324 349.274L95.704 365.483L79.497 348.866ZM99.897 369.778L116.515 353.568L132.724 370.186L116.104 386.396L99.897 369.778ZM99.384 411.09L116.002 394.88L132.212 411.497L115.594 427.707L99.384 411.09ZM119.784 432.002L136.401 415.792L152.611 432.41L135.993 448.62L119.784 432.002ZM135.484 489.931L119.274 473.314L135.891 457.104L152.101 473.721L135.484 489.931ZM140.184 452.914L156.802 436.704L170.732 450.985L168.461 457.761L156.394 469.532L140.184 452.914ZM160.584 473.827L164.284 470.214L162.435 475.728L160.584 473.827Z" fill="#F9697E"/>
<path opacity="0.3" d="M156.004 501.878C142.944 505.048 126.604 500.658 122.604 488.698L88.864 388.038C83.9972 386.605 79.725 383.634 76.686 379.572C73.647 375.509 72.0045 370.572 72.004 365.498V349.998H71.504C68.3382 349.999 65.259 348.964 62.7368 347.05C60.2145 345.137 58.3878 342.451 57.5354 339.402C56.6831 336.353 56.852 333.109 58.0164 330.165C59.1808 327.221 61.2767 324.739 63.984 323.098C64.034 323.298 64.094 323.498 64.164 323.698C66.6038 322.575 69.2582 321.995 71.944 321.998H83.224C80.0795 323.231 77.4638 325.522 75.8285 328.477C74.1932 331.433 73.6408 334.866 74.2666 338.185C74.8925 341.504 76.6574 344.5 79.2566 346.657C81.8559 348.814 85.1265 349.995 88.504 349.998H89.004V365.498C89.0045 370.572 90.647 375.509 93.686 379.572C96.725 383.634 100.997 386.605 105.864 388.038L139.604 488.698C141.924 495.638 148.414 500.038 156.004 501.878Z" fill="white"/>
<path d="M230.273 317.746C230.037 319.527 229.464 321.247 228.584 322.813C226.81 322.27 224.965 321.996 223.11 322H212.946C211.406 322 209.881 322.303 208.458 322.893C207.035 323.482 205.742 324.346 204.652 325.435C203.563 326.524 202.699 327.817 202.11 329.24C201.52 330.663 201.217 332.188 201.217 333.728V345.061C201.255 348.728 199.886 352.271 197.393 354.96C194.899 357.65 191.47 359.282 187.81 359.521C187.591 359.531 187.372 359.531 187.153 359.531C185.304 359.532 183.473 359.169 181.764 358.462C180.056 357.755 178.503 356.719 177.195 355.412C175.887 354.105 174.849 352.553 174.141 350.845C173.433 349.137 173.068 347.306 173.068 345.457V329.599C173.078 328.604 172.89 327.617 172.515 326.694C172.141 325.772 171.587 324.934 170.886 324.227C170.186 323.52 169.352 322.959 168.433 322.577C167.514 322.194 166.528 321.998 165.533 321.999C163.64 322.061 161.845 322.857 160.527 324.218C159.209 325.579 158.473 327.399 158.472 329.293V362.916C158.5 364.85 157.825 366.728 156.573 368.203C155.321 369.677 153.577 370.648 151.664 370.934C150.561 371.077 149.44 370.983 148.376 370.658C147.312 370.334 146.33 369.786 145.494 369.052C144.659 368.318 143.989 367.414 143.53 366.401C143.072 365.388 142.834 364.288 142.834 363.176V330.517C142.834 328.258 141.936 326.092 140.339 324.495C138.741 322.897 136.575 322 134.316 322H71.94C69.255 321.995 66.601 322.575 64.163 323.7C63.8207 322.752 63.6307 321.756 63.6 320.749C63.5584 319.423 63.7836 318.102 64.2624 316.864C64.7411 315.626 65.4637 314.498 66.3871 313.545C67.3105 312.592 68.4159 311.834 69.6378 311.316C70.8597 310.799 72.1731 310.532 73.5 310.532C73.688 310.532 73.865 310.532 74.053 310.543C73.3353 306.408 72.976 302.219 72.979 298.022C72.979 278.39 80.7776 259.563 94.6593 245.681C108.541 231.8 127.368 224.001 147 224.001C166.632 224.001 185.459 231.8 199.341 245.681C213.222 259.563 221.021 278.39 221.021 298.022C221.021 299.377 220.98 300.732 220.907 302.067C224.018 303.226 226.642 305.411 228.344 308.261C230.047 311.112 230.727 314.457 230.273 317.746Z" fill="#F9697E"/>
<path opacity="0.15" d="M230.274 317.75C230.04 319.529 229.466 321.247 228.584 322.81C226.811 322.27 224.967 321.997 223.114 322H212.944C211.404 322 209.878 322.303 208.455 322.892C207.032 323.482 205.738 324.346 204.649 325.435C203.56 326.524 202.696 327.818 202.106 329.241C201.517 330.664 201.214 332.19 201.214 333.73V345.06C201.253 348.727 199.885 352.268 197.393 354.958C194.901 357.647 191.473 359.28 187.814 359.52C187.594 359.53 187.374 359.53 187.154 359.53C183.42 359.532 179.838 358.051 177.196 355.413C174.553 352.774 173.067 349.194 173.064 345.46V344.18C174.077 344.414 175.114 344.531 176.154 344.53C176.374 344.53 176.594 344.53 176.814 344.52C180.473 344.28 183.901 342.647 186.393 339.958C188.885 337.268 190.253 333.727 190.214 330.06V318.73C190.214 317.19 190.517 315.664 191.106 314.241C191.696 312.818 192.56 311.524 193.649 310.435C194.738 309.346 196.032 308.482 197.455 307.892C198.878 307.303 200.404 307 201.944 307H212.114C213.967 306.997 215.811 307.27 217.584 307.81C218.466 306.247 219.04 304.529 219.274 302.75C219.729 299.462 219.05 296.116 217.348 293.266C215.647 290.416 213.024 288.23 209.914 287.07C209.984 285.73 210.024 284.38 210.024 283.02C210.045 270.465 206.854 258.114 200.754 247.14C213.793 260.868 221.051 279.086 221.024 298.02C221.024 299.38 220.984 300.73 220.914 302.07C224.024 303.23 226.647 305.416 228.348 308.266C230.05 311.116 230.729 314.462 230.274 317.75Z" fill="#4E385E"/>
<path d="M177.204 294.635C188.139 294.635 197.004 285.77 197.004 274.835C197.004 263.9 188.139 255.035 177.204 255.035C166.269 255.035 157.404 263.9 157.404 274.835C157.404 285.77 166.269 294.635 177.204 294.635Z" fill="white"/>
<path d="M177.204 288.035C184.494 288.035 190.404 282.125 190.404 274.835C190.404 267.545 184.494 261.635 177.204 261.635C169.914 261.635 164.004 267.545 164.004 274.835C164.004 282.125 169.914 288.035 177.204 288.035Z" fill="#4E385E"/>
<path d="M181.164 273.515C184.809 273.515 187.764 270.56 187.764 266.915C187.764 263.27 184.809 260.315 181.164 260.315C177.519 260.315 174.564 263.27 174.564 266.915C174.564 270.56 177.519 273.515 181.164 273.515Z" fill="white"/>
<path d="M178.524 282.755C179.982 282.755 181.164 281.573 181.164 280.115C181.164 278.657 179.982 277.475 178.524 277.475C177.066 277.475 175.884 278.657 175.884 280.115C175.884 281.573 177.066 282.755 178.524 282.755Z" fill="white"/>
<path d="M117.804 296.964C128.739 296.964 137.604 288.099 137.604 277.164C137.604 266.229 128.739 257.364 117.804 257.364C106.869 257.364 98.004 266.229 98.004 277.164C98.004 288.099 106.869 296.964 117.804 296.964Z" fill="white"/>
<path d="M117.804 290.364C125.094 290.364 131.004 284.454 131.004 277.164C131.004 269.874 125.094 263.964 117.804 263.964C110.514 263.964 104.604 269.874 104.604 277.164C104.604 284.454 110.514 290.364 117.804 290.364Z" fill="#4E385E"/>
<path d="M121.764 275.844C125.409 275.844 128.364 272.889 128.364 269.244C128.364 265.599 125.409 262.644 121.764 262.644C118.119 262.644 115.164 265.599 115.164 269.244C115.164 272.889 118.119 275.844 121.764 275.844Z" fill="white"/>
<path d="M119.124 285.084C120.582 285.084 121.764 283.902 121.764 282.444C121.764 280.986 120.582 279.804 119.124 279.804C117.666 279.804 116.484 280.986 116.484 282.444C116.484 283.902 117.666 285.084 119.124 285.084Z" fill="white"/>
<path opacity="0.25" d="M195.094 241.75C189.81 240.586 184.415 239.999 179.004 240C159.373 240 140.545 247.799 126.664 261.68C112.783 275.561 104.984 294.389 104.984 314.02C104.981 316.686 105.124 319.35 105.414 322H71.944C69.2577 321.992 66.6022 322.572 64.164 323.7C63.8246 322.752 63.6356 321.757 63.6041 320.75C63.5611 319.423 63.7855 318.101 64.2638 316.863C64.7421 315.625 65.4645 314.495 66.3881 313.542C67.3117 312.588 68.4176 311.83 69.6401 311.313C70.8626 310.796 72.1766 310.529 73.504 310.53C73.694 310.53 73.874 310.53 74.054 310.54C73.3367 306.405 72.9787 302.216 72.9841 298.02C72.9841 283.873 77.0381 270.022 84.6663 258.108C92.2944 246.194 103.177 236.715 116.025 230.794C128.874 224.874 143.15 222.759 157.163 224.701C171.176 226.642 184.339 232.559 195.094 241.75Z" fill="white"/>
<path d="M155.673 297.809C162.907 297.809 166.765 306.561 161.701 311.726C159.85 313.614 157.641 315.114 155.203 316.138C152.766 317.162 150.148 317.69 147.504 317.69C144.86 317.69 142.242 317.162 139.805 316.138C137.367 315.114 135.158 313.614 133.307 311.726C128.243 306.561 132.101 297.809 139.335 297.809H155.673Z" fill="#C64A65"/>
</svg>
