<svg width="24" height="24" viewBox="0 0 24 24" fill="none" xmlns="http://www.w3.org/2000/svg">
<path d="M11.8761 15.921C14.11 15.921 15.9211 14.11 15.9211 11.876C15.9211 9.642 14.11 7.83099 11.8761 7.83099C9.64206 7.83099 7.83105 9.642 7.83105 11.876C7.83105 14.11 9.64206 15.921 11.8761 15.921Z" stroke="white" stroke-linecap="round" stroke-linejoin="round"/>
<path d="M22.752 12.822V10.931C22.752 10.7037 22.6617 10.4857 22.501 10.325C22.3403 10.1643 22.1223 10.074 21.895 10.074H20.879C20.6941 10.0766 20.5132 10.0196 20.363 9.91162C20.2128 9.80359 20.1014 9.65018 20.045 9.474C19.8201 8.71342 19.4892 7.98831 19.062 7.32001C18.9616 7.15715 18.9196 6.96499 18.9428 6.77509C18.9661 6.58518 19.0533 6.40883 19.19 6.27502C19.3505 6.11418 19.4406 5.89622 19.4406 5.66901C19.4406 5.44179 19.3505 5.22384 19.19 5.06299L18.69 4.56299C18.6105 4.48329 18.5161 4.42004 18.4121 4.37689C18.3081 4.33375 18.1966 4.31158 18.084 4.31158C17.9714 4.31158 17.86 4.33375 17.756 4.37689C17.652 4.42004 17.5575 4.48329 17.478 4.56299V4.56299C17.3443 4.69951 17.168 4.78643 16.9783 4.80951C16.7886 4.83259 16.5966 4.79047 16.434 4.69C15.7655 4.26278 15.04 3.93218 14.279 3.70801C14.1027 3.6516 13.9491 3.53995 13.8411 3.38959C13.7331 3.23923 13.6762 3.05812 13.679 2.87299V1.85797C13.679 1.63085 13.5889 1.41307 13.4284 1.25238C13.2679 1.09169 13.0501 1.00124 12.823 1.00098H10.931C10.7039 1.00124 10.4862 1.09169 10.3257 1.25238C10.1652 1.41307 10.075 1.63085 10.075 1.85797V2.87402C10.0779 3.05906 10.0211 3.2401 9.91306 3.39032C9.80498 3.54054 9.65139 3.65193 9.47504 3.70801C8.71415 3.93297 7.98871 4.26385 7.32004 4.69098C7.15744 4.79144 6.96549 4.83363 6.77576 4.81055C6.58603 4.78747 6.4098 4.70054 6.27603 4.56403V4.56403C6.19652 4.48432 6.10206 4.42107 5.99808 4.37793C5.89409 4.33478 5.7826 4.31256 5.67001 4.31256C5.55743 4.31256 5.44597 4.33478 5.34198 4.37793C5.23799 4.42107 5.14354 4.48432 5.06403 4.56403L4.56403 5.06403C4.40355 5.22488 4.31342 5.44277 4.31342 5.66998C4.31342 5.8972 4.40355 6.11515 4.56403 6.276V6.276C4.70078 6.40981 4.78796 6.58615 4.81122 6.77606C4.83448 6.96597 4.79243 7.15813 4.69202 7.32098C4.26487 7.98929 3.93395 8.7144 3.70901 9.47498C3.65266 9.65116 3.54118 9.80457 3.39102 9.9126C3.24086 10.0206 3.05999 10.0776 2.87503 10.075H1.86102C1.63373 10.075 1.41575 10.1653 1.25504 10.326C1.09432 10.4867 1.00403 10.7047 1.00403 10.932V12.823C1.00403 13.0503 1.09432 13.2683 1.25504 13.429C1.41575 13.5897 1.63373 13.68 1.86102 13.68H2.87701C3.06201 13.6773 3.243 13.7341 3.39319 13.8422C3.54338 13.9502 3.65481 14.1037 3.71103 14.28C3.93617 15.0405 4.26707 15.7656 4.69403 16.434C4.79445 16.5969 4.83646 16.789 4.8132 16.9789C4.78994 17.1689 4.70277 17.3452 4.56601 17.479V17.479C4.40559 17.6397 4.31549 17.8574 4.31549 18.0845C4.31549 18.3115 4.40559 18.5293 4.56601 18.69L5.06601 19.19C5.14559 19.2696 5.24008 19.3327 5.34406 19.3758C5.44803 19.4189 5.55948 19.441 5.67203 19.441C5.78457 19.441 5.89602 19.4189 6 19.3758C6.10398 19.3327 6.19843 19.2696 6.27802 19.19V19.19C6.41166 19.0533 6.58785 18.9662 6.77759 18.9429C6.96732 18.9197 7.15932 18.9617 7.32202 19.062C7.99068 19.4892 8.71613 19.82 9.47702 20.045C9.65321 20.1013 9.80662 20.2128 9.91464 20.363C10.0227 20.5131 10.0796 20.694 10.077 20.879V21.895C10.0769 22.0075 10.0989 22.1189 10.1419 22.2229C10.1849 22.3269 10.2479 22.4213 10.3274 22.5009C10.4069 22.5805 10.5013 22.6437 10.6052 22.6868C10.7091 22.7298 10.8205 22.752 10.933 22.752H12.825C12.9375 22.752 13.0489 22.7298 13.1528 22.6868C13.2568 22.6437 13.3512 22.5805 13.4307 22.5009C13.5102 22.4213 13.5732 22.3269 13.6161 22.2229C13.6591 22.1189 13.6812 22.0075 13.681 21.895V20.879C13.6785 20.694 13.7354 20.5131 13.8434 20.363C13.9514 20.2128 14.1049 20.1013 14.281 20.045C15.0419 19.82 15.7674 19.4892 16.436 19.062C16.5987 18.9617 16.7907 18.9197 16.9805 18.9429C17.1702 18.9662 17.3464 19.0533 17.48 19.19V19.19C17.6409 19.3505 17.8588 19.4406 18.086 19.4406C18.3132 19.4406 18.5312 19.3505 18.692 19.19L19.192 18.69C19.3524 18.5293 19.4425 18.3115 19.4425 18.0845C19.4425 17.8574 19.3524 17.6397 19.192 17.479V17.479C19.0553 17.3452 18.9681 17.1689 18.9448 16.9789C18.9216 16.789 18.9636 16.5969 19.064 16.434C19.491 15.7656 19.8219 15.0405 20.047 14.28C20.1032 14.1037 20.2147 13.9502 20.3649 13.8422C20.5151 13.7341 20.696 13.6773 20.881 13.68H21.897C22.1242 13.6795 22.3418 13.5888 22.5021 13.4279C22.6624 13.267 22.7523 13.0491 22.752 12.822V12.822Z" stroke="white" stroke-linecap="round" stroke-linejoin="round"/>
</svg>
