<svg width="24" height="18" viewBox="0 0 24 18" fill="none" xmlns="http://www.w3.org/2000/svg">
<path d="M10 1H21.265C21.7252 1 22.1665 1.18279 22.4918 1.50817C22.8172 1.83355 23 2.27485 23 2.735V4.265C23 4.72515 22.8172 5.16645 22.4918 5.49183C22.1665 5.81721 21.7252 6 21.265 6H10V1Z" stroke="white" stroke-linecap="round" stroke-linejoin="round"/>
<path d="M10 12H21.265C21.7252 12 22.1665 12.1828 22.4918 12.5082C22.8172 12.8335 23 13.2748 23 13.735V15.265C23 15.7252 22.8172 16.1665 22.4918 16.4918C22.1665 16.8172 21.7252 17 21.265 17H10V12Z" stroke="white" stroke-linecap="round" stroke-linejoin="round"/>
<path d="M6 5.99998H2.63C2.41922 6.00395 2.20971 5.96621 2.01355 5.88896C1.81739 5.8117 1.63844 5.69642 1.48697 5.54978C1.3355 5.40314 1.21449 5.22802 1.13092 5.03446C1.04735 4.84091 1.00286 4.63278 1 4.42198V2.57798C1.00286 2.36718 1.04735 2.15899 1.13092 1.96543C1.21449 1.77188 1.3355 1.59675 1.48697 1.45011C1.63844 1.30347 1.81739 1.18825 2.01355 1.111C2.20971 1.03375 2.41922 0.996006 2.63 0.999979H6V5.99998Z" stroke="white" stroke-linecap="round" stroke-linejoin="round"/>
<path d="M6 17H2.63C2.41922 17.004 2.20971 16.9662 2.01355 16.889C1.81739 16.8117 1.63844 16.6964 1.48697 16.5498C1.3355 16.4031 1.21449 16.228 1.13092 16.0345C1.04735 15.8409 1.00286 15.6328 1 15.422V13.578C1.00286 13.3672 1.04735 13.159 1.13092 12.9654C1.21449 12.7719 1.3355 12.5968 1.48697 12.4501C1.63844 12.3035 1.81739 12.1883 2.01355 12.111C2.20971 12.0337 2.41922 11.996 2.63 12H6V17Z" stroke="white" stroke-linecap="round" stroke-linejoin="round"/>
</svg>
