<svg width="304" height="576" viewBox="0 0 304 576" fill="none" xmlns="http://www.w3.org/2000/svg">
<g clip-path="url(#clip0)">
<path d="M58.27 518.134L51.632 516.256L53.51 509.618L55.764 501.653L47.799 499.399L41.157 497.521L43.035 490.883L45.289 482.918L37.324 480.664L30.686 478.786L34.819 464.186L26.854 461.932L20.467 484.5L35.067 488.633L30.934 503.233L45.534 507.366L41.401 521.966L56.001 526.099L51.868 540.699L59.833 542.953L62.087 534.988L63.965 528.35L66.219 520.385L58.27 518.134Z" fill="#068AF6" stroke="#068AF6" stroke-miterlimit="10"/>
<path d="M280.242 396.936L273.966 399.8L271.102 393.524L267.665 385.993L260.134 389.43L253.858 392.294L250.994 386.018L247.557 378.487L240.026 381.924L233.75 384.788L227.45 370.982L219.919 374.419L229.657 395.756L243.463 389.456L249.763 403.262L263.569 396.962L269.869 410.768L283.675 404.468L289.975 418.274L297.506 414.837L294.069 407.306L291.205 401.03L287.768 393.499L280.242 396.936Z" fill="#FFC37B"/>
<path d="M248.404 95.6341L233.271 84.8008C230.876 83.0866 227.545 83.6382 225.831 86.0327L214.998 101.166C213.284 103.56 213.835 106.891 216.23 108.605L231.363 119.439C233.758 121.153 237.088 120.601 238.802 118.207L249.636 103.074C251.35 100.679 250.798 97.3483 248.404 95.6341Z" fill="#FEE383"/>
<path d="M41.9571 263.995L30.7767 255.992C28.3822 254.278 25.0514 254.829 23.3372 257.224L15.3335 268.404C13.6193 270.799 14.1709 274.129 16.5654 275.844L27.7458 283.847C30.1404 285.562 33.4712 285.01 35.1854 282.615L43.189 271.435C44.9032 269.04 44.3517 265.71 41.9571 263.995Z" fill="#2CC990"/>
<path opacity="0.25" d="M290.025 230.833L272.013 213.403C271.532 212.937 271.2 212.339 271.058 211.685C270.917 211.03 270.973 210.349 271.219 209.726C271.465 209.103 271.891 208.568 272.441 208.187C272.992 207.806 273.643 207.597 274.313 207.586L292.034 207.295C292.932 207.28 293.798 207.623 294.443 208.247C295.089 208.871 295.459 209.726 295.474 210.624L295.765 228.345C295.776 229.015 295.589 229.673 295.226 230.236C294.863 230.799 294.341 231.241 293.727 231.508C293.112 231.774 292.432 231.852 291.773 231.732C291.115 231.612 290.506 231.299 290.025 230.833Z" fill="white"/>
<path opacity="0.25" d="M43.81 370.127L25.798 352.697C25.3168 352.231 24.9846 351.633 24.8433 350.979C24.702 350.324 24.758 349.643 25.0042 349.02C25.2504 348.397 25.6757 347.862 26.2264 347.481C26.7772 347.1 27.4285 346.891 28.098 346.88L45.819 346.589C46.7166 346.574 47.5833 346.917 48.2284 347.541C48.8736 348.165 49.2443 349.02 49.259 349.918L49.55 367.639C49.5613 368.309 49.3736 368.967 49.0108 369.53C48.6479 370.093 48.1262 370.535 47.5117 370.802C46.8971 371.068 46.2174 371.146 45.5584 371.026C44.8995 370.906 44.291 370.593 43.81 370.127V370.127Z" fill="white"/>
<path d="M0.935001 154.933L18.172 136.733C18.6324 136.247 19.2266 135.909 19.8794 135.76C20.5321 135.612 21.2142 135.661 21.8394 135.9C22.4646 136.139 23.0048 136.559 23.3917 137.105C23.7786 137.651 23.9948 138.3 24.013 138.969L24.493 156.686C24.5172 157.583 24.184 158.454 23.5666 159.105C22.9493 159.757 22.0983 160.137 21.201 160.161L3.484 160.641C2.81528 160.659 2.15627 160.478 1.59023 160.122C1.02418 159.765 0.576499 159.249 0.303729 158.638C0.03096 158.027 -0.0546531 157.349 0.0577044 156.69C0.170062 156.03 0.475351 155.419 0.935001 154.933V154.933Z" fill="#FF463E"/>
<path d="M52.1371 72.7879L95.1253 63.7939C101.281 62.506 105.227 56.4721 103.939 50.3168C102.651 44.1615 96.6173 40.2157 90.4617 41.5035L47.4735 50.4976C41.3179 51.7854 37.3718 57.8193 38.6596 63.9746C39.9475 70.13 45.9815 74.0758 52.1371 72.7879Z" fill="#FEE383"/>
<path d="M165.611 549.91L126.101 530.731C120.443 527.984 113.631 530.344 110.885 536.001C108.138 541.659 110.499 548.471 116.156 551.217L155.666 570.397C161.324 573.143 168.136 570.783 170.882 565.126C173.629 559.468 171.268 552.656 165.611 549.91Z" fill="#FF8A63"/>
<path opacity="0.25" d="M297.433 24.8584L274.319 5.45659C270.729 2.443 265.376 2.91032 262.362 6.50037L258.634 10.9419C255.62 14.532 256.088 19.8853 259.678 22.8989L282.791 42.3007C286.381 45.3143 291.734 44.847 294.748 41.257L298.476 36.8154C301.49 33.2253 301.023 27.872 297.433 24.8584Z" fill="white"/>
<path d="M236.061 519.016L250.604 530.578C252.909 532.411 256.264 532.028 258.097 529.723L269.659 515.18C271.492 512.874 271.109 509.519 268.803 507.686L254.26 496.124C251.955 494.291 248.6 494.674 246.767 496.98L235.205 511.523C233.372 513.828 233.755 517.183 236.061 519.016Z" fill="#B2FB2C"/>
<path opacity="0.25" d="M141.045 107.878C148.232 107.878 154.058 102.052 154.058 94.865C154.058 87.6781 148.232 81.852 141.045 81.852C133.858 81.852 128.032 87.6781 128.032 94.865C128.032 102.052 133.858 107.878 141.045 107.878Z" fill="white"/>
<g clip-path="url(#clip1)">
<path d="M243 260.498C243 264.344 241.472 268.032 238.753 270.751C236.034 273.47 232.346 274.998 228.5 274.998H228V290.498C227.999 295.572 226.357 300.509 223.318 304.572C220.279 308.634 216.007 311.604 211.14 313.038L177.4 413.698C171.07 432.598 133.93 432.598 127.6 413.698L93.86 313.038C88.9931 311.604 84.7209 308.634 81.682 304.572C78.643 300.509 77.0005 295.572 77 290.498V274.998H76.5C73.3341 274.999 70.255 273.964 67.7327 272.05C65.2105 270.137 63.3837 267.451 62.5314 264.402C61.679 261.353 61.8479 258.109 63.0123 255.165C64.1767 252.221 66.2727 249.739 68.98 248.098C69.03 248.298 69.09 248.498 69.16 248.698C71.5997 247.575 74.2542 246.995 76.94 246.998H139.31C141.57 246.998 143.736 247.896 145.334 249.494C146.932 251.092 147.83 253.258 147.83 255.518V288.178C147.83 289.29 148.067 290.39 148.525 291.404C148.984 292.417 149.653 293.322 150.489 294.056C151.325 294.79 152.307 295.338 153.372 295.663C154.436 295.987 155.557 296.081 156.66 295.938C158.574 295.652 160.319 294.682 161.571 293.207C162.824 291.732 163.498 289.853 163.47 287.918V254.298C163.472 252.405 164.209 250.586 165.526 249.226C166.843 247.865 168.638 247.07 170.53 247.008C171.524 247.006 172.509 247.202 173.428 247.583C174.346 247.965 175.18 248.525 175.88 249.231C176.58 249.936 177.134 250.774 177.508 251.696C177.882 252.617 178.07 253.604 178.06 254.598V270.458C178.061 272.307 178.426 274.138 179.134 275.846C179.843 277.554 180.881 279.106 182.19 280.413C183.498 281.719 185.051 282.755 186.76 283.461C188.469 284.168 190.301 284.53 192.15 284.528C192.37 284.528 192.59 284.528 192.81 284.518C196.469 284.278 199.897 282.646 202.389 279.956C204.881 277.267 206.249 273.725 206.21 270.058V258.728C206.21 257.188 206.513 255.662 207.102 254.239C207.692 252.816 208.556 251.522 209.645 250.433C210.734 249.344 212.028 248.48 213.451 247.89C214.874 247.301 216.4 246.998 217.94 246.998H228.11C229.963 246.995 231.807 247.268 233.58 247.808C233.72 247.569 233.847 247.322 233.96 247.068C236.634 248.151 238.923 250.008 240.533 252.401C242.144 254.794 243.003 257.613 243 260.498V260.498Z" fill="#F0B96C"/>
<path opacity="0.25" d="M234.856 247.481L234.728 247.42C234.288 247.21 233.837 247.022 233.378 246.858C233.307 246.833 233.238 246.805 233.167 246.781C232.692 246.619 232.21 246.483 231.721 246.371C231.675 246.36 231.63 246.345 231.583 246.335C230.57 246.114 229.537 246.002 228.5 246H220.18L220.159 245.983C219.674 245.549 219.17 245.138 218.65 244.745C218.444 244.589 218.226 244.445 218.015 244.3C217.69 244.071 217.366 243.842 217.03 243.629C216.753 243.454 216.466 243.295 216.182 243.129C215.898 242.963 215.62 242.806 215.332 242.656C215.002 242.484 214.665 242.326 214.326 242.17C214.075 242.054 213.826 241.939 213.566 241.832C213.189 241.674 212.807 241.526 212.421 241.389C212.197 241.309 211.971 241.233 211.744 241.16C211.321 241.022 210.896 240.894 210.463 240.781C210.271 240.731 210.077 240.688 209.883 240.643C209.411 240.532 208.938 240.428 208.456 240.343C208.314 240.319 208.17 240.304 208.027 240.283C206.86 240.099 205.681 240.002 204.5 239.995H100.5C96.4988 239.995 92.5648 241.024 89.076 242.983L88.93 243.064C87.459 243.891 86.0811 244.874 84.82 245.995H76.5C73.8099 245.993 71.1724 246.74 68.8832 248.153C66.5941 249.567 64.7439 251.589 63.54 253.995H63.577C62.7114 255.695 62.1933 257.55 62.053 259.452L76.005 273.752L74.84 274.889C75.391 274.954 75.9452 274.987 76.5 274.989H77V281.161L80.2 278.045L96.41 294.662L83.787 306.975C85.2076 308.42 86.8085 309.675 88.55 310.711L100.599 298.957L116.809 315.574L100.192 331.784L100.133 331.724L104.52 344.813L116.296 356.886L110.471 362.569L112.588 368.885L120.488 361.185L136.698 377.802L120.773 393.338L125.873 408.562L136.173 419.123L133.389 421.838C135.004 423.137 136.78 424.222 138.674 425.065L140.362 423.417L143.637 426.775C146.722 427.55 149.896 427.914 153.076 427.859L144.657 419.228L161.275 403.018L165.281 407.125L160.4 421.7C159.666 423.883 158.495 425.894 156.96 427.61C165.311 426.598 173.003 422.71 176.431 415.967C176.506 415.822 176.579 415.676 176.65 415.529C176.74 415.34 176.829 415.151 176.911 414.958C177.089 414.549 177.256 414.133 177.401 413.702L178.087 411.654L186.381 386.911L188.524 380.516L190.553 374.462L191.479 371.701L211.139 313.038C211.419 312.956 211.689 312.851 211.965 312.758C217.732 310.823 222.527 306.73 225.343 301.338V301.338C225.557 300.926 225.759 300.507 225.95 300.082C226.063 299.83 226.164 299.573 226.268 299.316C226.372 299.059 226.479 298.791 226.576 298.524C226.667 298.274 226.755 298.024 226.838 297.77C226.947 297.436 227.045 297.097 227.138 296.756C227.191 296.566 227.251 296.378 227.299 296.186C227.429 295.665 227.537 295.136 227.632 294.602C227.665 294.417 227.69 294.231 227.718 294.045C227.781 293.634 227.833 293.221 227.874 292.804C227.891 292.624 227.91 292.445 227.924 292.264C227.967 291.68 227.997 291.092 227.997 290.497V274.997H228.497C231.775 274.998 234.956 273.889 237.522 271.849C240.088 269.809 241.886 266.96 242.624 263.766C243.361 260.573 242.995 257.223 241.583 254.265C240.172 251.307 237.799 248.914 234.853 247.478L234.856 247.481ZM194.14 321.038L193.777 322.121L182.81 332.821L166.6 316.203L183.218 299.993L199.427 316.611L195.284 320.652C194.9 320.786 194.528 320.926 194.14 321.038ZM177.867 369.588L166.087 357.513L182.705 341.303L186.16 344.845L177.867 369.588ZM179.028 295.697L162.411 311.908L146.2 295.291L162.817 279.081L179.028 295.697ZM167.113 274.89L183.731 258.68L199.94 275.297L183.323 291.507L167.113 274.89ZM142.013 290.99L125.8 274.379L142.418 258.169L158.628 274.787L142.013 290.99ZM158.118 316.09L141.5 332.308L125.29 315.691L141.907 299.481L158.118 316.09ZM162.307 320.385L178.517 337.002L161.9 353.22L145.69 336.603L162.307 320.385ZM187.007 337.107L189.607 334.568L188.307 338.444L187.007 337.107ZM203.729 312.413L187.519 295.796L204.137 279.586L211.007 286.629V298.492C211.005 301.336 210.484 304.156 209.47 306.814L203.729 312.413ZM215.329 282.466L208.429 275.396L223.636 260.562C224.888 262.473 225.669 264.654 225.916 266.925C226.164 269.196 225.87 271.493 225.06 273.629C224.249 275.765 222.945 277.679 221.253 279.214C219.561 280.749 217.529 281.862 215.325 282.462L215.329 282.466ZM203.18 254H211.5C214.298 253.998 217.036 254.81 219.38 256.337L204.235 271.11L188.026 254.492L193.797 248.863C197.279 249.83 200.49 251.588 203.18 254V254ZM186.089 248L183.836 250.2L181.692 248H186.089ZM173.311 248L179.541 254.387L162.924 270.597L146.714 253.98L152.844 248H173.311ZM144.251 248L142.524 249.685L140.88 248H144.251ZM132.499 248L138.229 253.874L121.612 270.084L105.4 253.467L111 248H132.499ZM102.414 248L101.214 249.172L100.071 248H102.414ZM65.114 254H67.823C72.1276 250.129 77.7141 247.992 83.503 248H91.69L96.921 253.361L80.3 269.571L65.114 254ZM84.493 273.866L101.11 257.656L117.32 274.274L100.7 290.483L84.493 273.866ZM104.893 294.778L121.511 278.568L137.72 295.186L121.1 311.396L104.893 294.778ZM104.38 336.09L120.998 319.88L137.208 336.497L120.59 352.707L104.38 336.09ZM124.78 357.002L141.397 340.792L157.607 357.41L140.989 373.62L124.78 357.002ZM140.48 414.931L124.27 398.314L140.887 382.104L157.097 398.721L140.48 414.931ZM145.18 377.914L161.798 361.704L175.728 375.985L173.457 382.761L161.39 394.532L145.18 377.914ZM165.58 398.827L169.28 395.214L167.431 400.728L165.58 398.827Z" fill="#F9697E"/>
<path opacity="0.3" d="M161 426.878C147.94 430.048 131.6 425.658 127.6 413.698L93.86 313.038C88.9931 311.604 84.7209 308.634 81.682 304.572C78.643 300.509 77.0005 295.572 77 290.498V274.998H76.5C73.3341 274.999 70.255 273.964 67.7327 272.05C65.2105 270.137 63.3837 267.451 62.5314 264.402C61.679 261.353 61.8479 258.109 63.0123 255.165C64.1767 252.221 66.2727 249.739 68.98 248.098C69.03 248.298 69.09 248.498 69.16 248.698C71.5997 247.575 74.2542 246.995 76.94 246.998H88.22C85.0754 248.231 82.4598 250.522 80.8245 253.477C79.1891 256.433 78.6367 259.866 79.2626 263.185C79.8885 266.504 81.6533 269.5 84.2526 271.657C86.8519 273.814 90.1225 274.995 93.5 274.998H94V290.498C94.0005 295.572 95.643 300.509 98.682 304.572C101.721 308.634 105.993 311.604 110.86 313.038L144.6 413.698C146.92 420.638 153.41 425.038 161 426.878Z" fill="white"/>
<path d="M235.269 242.746C235.033 244.527 234.46 246.247 233.58 247.813C231.806 247.27 229.961 246.996 228.106 247H217.942C216.402 247 214.877 247.303 213.454 247.892C212.031 248.482 210.738 249.346 209.648 250.435C208.559 251.524 207.695 252.817 207.106 254.24C206.516 255.663 206.213 257.188 206.213 258.728V270.061C206.251 273.728 204.882 277.271 202.389 279.96C199.895 282.65 196.466 284.282 192.806 284.521C192.587 284.531 192.368 284.531 192.149 284.531C190.3 284.532 188.469 284.169 186.76 283.462C185.052 282.755 183.499 281.719 182.191 280.412C180.883 279.105 179.845 277.553 179.137 275.845C178.429 274.137 178.064 272.306 178.064 270.457V254.599C178.074 253.604 177.886 252.617 177.511 251.694C177.137 250.772 176.583 249.934 175.882 249.227C175.182 248.52 174.348 247.959 173.429 247.577C172.51 247.194 171.524 246.998 170.529 246.999C168.636 247.061 166.841 247.857 165.523 249.218C164.205 250.579 163.469 252.399 163.468 254.293V287.916C163.496 289.85 162.821 291.728 161.569 293.203C160.317 294.677 158.573 295.648 156.66 295.934C155.557 296.077 154.436 295.983 153.372 295.658C152.308 295.334 151.326 294.786 150.49 294.052C149.655 293.318 148.985 292.414 148.526 291.401C148.068 290.388 147.83 289.288 147.83 288.176V255.517C147.83 253.258 146.932 251.092 145.335 249.495C143.737 247.897 141.571 247 139.312 247H76.936C74.2509 246.995 71.597 247.575 69.159 248.7C68.8167 247.752 68.6266 246.756 68.596 245.749C68.5543 244.423 68.7796 243.102 69.2583 241.864C69.7371 240.626 70.4596 239.498 71.383 238.545C72.3064 237.592 73.4119 236.834 74.6338 236.316C75.8556 235.799 77.169 235.532 78.496 235.532C78.684 235.532 78.861 235.532 79.049 235.543C78.3313 231.408 77.972 227.219 77.975 223.022C77.975 203.39 85.7736 184.563 99.6552 170.681C113.537 156.8 132.364 149.001 151.996 149.001C171.628 149.001 190.455 156.8 204.337 170.681C218.218 184.563 226.017 203.39 226.017 223.022C226.017 224.377 225.976 225.732 225.903 227.067C229.014 228.226 231.638 230.411 233.34 233.261C235.043 236.112 235.723 239.457 235.269 242.746V242.746Z" fill="#F9697E"/>
<path opacity="0.15" d="M235.27 242.75C235.036 244.529 234.462 246.247 233.58 247.81C231.807 247.27 229.963 246.997 228.11 247H217.94C216.4 247 214.874 247.303 213.451 247.892C212.028 248.482 210.734 249.346 209.645 250.435C208.556 251.524 207.692 252.818 207.102 254.241C206.513 255.664 206.21 257.19 206.21 258.73V270.06C206.249 273.726 204.881 277.268 202.389 279.958C199.897 282.647 196.469 284.28 192.81 284.52C192.59 284.53 192.37 284.53 192.15 284.53C188.416 284.532 184.834 283.051 182.192 280.413C179.549 277.774 178.063 274.194 178.06 270.46V269.18C179.073 269.414 180.11 269.531 181.15 269.53C181.37 269.53 181.59 269.53 181.81 269.52C185.469 269.28 188.897 267.647 191.389 264.958C193.881 262.268 195.249 258.726 195.21 255.06V243.73C195.21 242.19 195.513 240.664 196.102 239.241C196.692 237.818 197.556 236.524 198.645 235.435C199.734 234.346 201.028 233.482 202.451 232.892C203.874 232.303 205.4 232 206.94 232H217.11C218.963 231.997 220.807 232.27 222.58 232.81C223.462 231.247 224.036 229.529 224.27 227.75C224.725 224.462 224.046 221.116 222.344 218.266C220.642 215.416 218.02 213.23 214.91 212.07C214.98 210.73 215.02 209.38 215.02 208.02C215.041 195.465 211.85 183.114 205.75 172.14C218.789 185.868 226.047 204.086 226.02 223.02C226.02 224.38 225.98 225.73 225.91 227.07C229.02 228.23 231.642 230.416 233.344 233.266C235.046 236.116 235.725 239.462 235.27 242.75V242.75Z" fill="#4E385E"/>
<path d="M182.2 219.635C193.135 219.635 202 210.77 202 199.835C202 188.9 193.135 180.035 182.2 180.035C171.265 180.035 162.4 188.9 162.4 199.835C162.4 210.77 171.265 219.635 182.2 219.635Z" fill="white"/>
<path d="M182.2 213.035C189.49 213.035 195.4 207.125 195.4 199.835C195.4 192.545 189.49 186.635 182.2 186.635C174.91 186.635 169 192.545 169 199.835C169 207.125 174.91 213.035 182.2 213.035Z" fill="#4E385E"/>
<path d="M186.16 198.515C189.805 198.515 192.76 195.56 192.76 191.915C192.76 188.27 189.805 185.315 186.16 185.315C182.515 185.315 179.56 188.27 179.56 191.915C179.56 195.56 182.515 198.515 186.16 198.515Z" fill="white"/>
<path d="M183.52 207.755C184.978 207.755 186.16 206.573 186.16 205.115C186.16 203.657 184.978 202.475 183.52 202.475C182.062 202.475 180.88 203.657 180.88 205.115C180.88 206.573 182.062 207.755 183.52 207.755Z" fill="white"/>
<path d="M122.8 221.964C133.735 221.964 142.6 213.099 142.6 202.164C142.6 191.229 133.735 182.364 122.8 182.364C111.865 182.364 103 191.229 103 202.164C103 213.099 111.865 221.964 122.8 221.964Z" fill="white"/>
<path d="M122.8 215.364C130.09 215.364 136 209.454 136 202.164C136 194.874 130.09 188.964 122.8 188.964C115.51 188.964 109.6 194.874 109.6 202.164C109.6 209.454 115.51 215.364 122.8 215.364Z" fill="#4E385E"/>
<path d="M126.76 200.844C130.405 200.844 133.36 197.889 133.36 194.244C133.36 190.599 130.405 187.644 126.76 187.644C123.115 187.644 120.16 190.599 120.16 194.244C120.16 197.889 123.115 200.844 126.76 200.844Z" fill="white"/>
<path d="M124.12 210.084C125.578 210.084 126.76 208.902 126.76 207.444C126.76 205.986 125.578 204.804 124.12 204.804C122.662 204.804 121.48 205.986 121.48 207.444C121.48 208.902 122.662 210.084 124.12 210.084Z" fill="white"/>
<path opacity="0.25" d="M200.09 166.75C194.806 165.586 189.411 164.999 184 165C164.369 165 145.541 172.799 131.66 186.68C117.778 200.561 109.98 219.389 109.98 239.02C109.976 241.686 110.12 244.35 110.41 247H76.94C74.2537 246.992 71.5981 247.572 69.16 248.7C68.8205 247.752 68.6315 246.757 68.6 245.75C68.5571 244.423 68.7814 243.101 69.2597 241.863C69.738 240.625 70.4604 239.495 71.384 238.542C72.3076 237.588 73.4136 236.83 74.636 236.313C75.8585 235.796 77.1725 235.529 78.5 235.53C78.69 235.53 78.87 235.53 79.05 235.54C78.3326 231.405 77.9747 227.216 77.98 223.02C77.98 208.873 82.0341 195.022 89.6622 183.108C97.2904 171.194 108.173 161.715 121.021 155.794C133.87 149.874 148.146 147.759 162.159 149.7C176.172 151.642 189.335 157.559 200.09 166.75V166.75Z" fill="white"/>
<path d="M160.669 222.809C167.903 222.809 171.761 231.561 166.697 236.726C164.846 238.614 162.637 240.114 160.199 241.138C157.762 242.162 155.144 242.69 152.5 242.69C149.856 242.69 147.238 242.162 144.801 241.138C142.363 240.114 140.154 238.614 138.303 236.726C133.239 231.561 137.097 222.809 144.331 222.809H160.669Z" fill="#C64A65"/>
<path opacity="0.5" d="M121.225 345.278L142.5 408.438" stroke="white" stroke-width="6" stroke-linecap="round" stroke-linejoin="round"/>
<path opacity="0.5" d="M114.149 325.302L118.402 337.929" stroke="white" stroke-width="6" stroke-linecap="round" stroke-linejoin="round"/>
<path opacity="0.5" d="M110.5 313.438L110.84 314.447" stroke="white" stroke-width="6" stroke-linecap="round" stroke-linejoin="round"/>
<path opacity="0.5" d="M106.167 260.438H137.5" stroke="white" stroke-width="6" stroke-linecap="round" stroke-linejoin="round"/>
<path opacity="0.5" d="M83.5 260.438H91" stroke="white" stroke-width="6" stroke-linecap="round" stroke-linejoin="round"/>
</g>
</g>
<defs>
<clipPath id="clip0">
<rect width="303.933" height="575.37" fill="white"/>
</clipPath>
<clipPath id="clip1">
<rect x="62" y="149" width="181" height="278.875" fill="white"/>
</clipPath>
</defs>
</svg>
