<svg width="182" height="280" viewBox="0 0 182 280" fill="none" xmlns="http://www.w3.org/2000/svg">
<path d="M181.565 112.061C181.565 115.907 180.037 119.595 177.318 122.314C174.599 125.033 170.911 126.561 167.065 126.561H166.565V142.061C166.564 147.135 164.922 152.072 161.883 156.135C158.844 160.197 154.572 163.167 149.705 164.601L115.965 265.261C109.635 284.161 72.495 284.161 66.165 265.261L32.425 164.601C27.5581 163.167 23.2859 160.197 20.247 156.135C17.208 152.072 15.5655 147.135 15.565 142.061V126.561H15.065C11.8992 126.562 8.82001 125.527 6.29775 123.613C3.77549 121.7 1.94874 119.014 1.09639 115.965C0.24405 112.916 0.412948 109.672 1.57735 106.728C2.74175 103.784 4.83766 101.302 7.545 99.661C7.595 99.861 7.65499 100.061 7.72499 100.261C10.1647 99.138 12.8192 98.5579 15.505 98.561H77.875C80.1345 98.5612 82.3015 99.459 83.8992 101.057C85.497 102.654 86.3947 104.821 86.395 107.081V139.741C86.3948 140.853 86.632 141.953 87.0905 142.967C87.549 143.98 88.2185 144.885 89.0541 145.619C89.8898 146.353 90.8724 146.901 91.9365 147.226C93.0006 147.55 94.1217 147.644 95.225 147.501C97.1388 147.215 98.8839 146.245 100.136 144.77C101.389 143.295 102.063 141.416 102.035 139.481V105.861C102.037 103.967 102.774 102.149 104.091 100.789C105.408 99.4284 107.203 98.6332 109.095 98.571C110.089 98.5691 111.074 98.7645 111.993 99.1461C112.911 99.5276 113.745 100.088 114.445 100.793C115.145 101.499 115.699 102.337 116.073 103.259C116.447 104.18 116.635 105.167 116.625 106.161V122.021C116.626 123.87 116.991 125.701 117.699 127.409C118.408 129.117 119.446 130.669 120.755 131.976C122.063 133.282 123.616 134.318 125.325 135.024C127.034 135.73 128.866 136.093 130.715 136.091C130.935 136.091 131.155 136.091 131.375 136.081C135.034 135.841 138.462 134.209 140.954 131.519C143.446 128.83 144.814 125.288 144.775 121.621V110.291C144.775 108.751 145.078 107.225 145.667 105.802C146.257 104.379 147.121 103.085 148.21 101.996C149.299 100.907 150.593 100.043 152.016 99.4533C153.439 98.8639 154.965 98.5607 156.505 98.561H166.675C168.528 98.5578 170.372 98.8308 172.145 99.371C172.285 99.1316 172.412 98.8846 172.525 98.631C175.199 99.7138 177.488 101.571 179.098 103.964C180.709 106.357 181.568 109.176 181.565 112.061Z" fill="#F0B96C"/>
<path opacity="0.25" d="M173.421 99.044L173.293 98.983C172.853 98.7727 172.402 98.5851 171.943 98.421C171.872 98.396 171.803 98.368 171.732 98.344C171.257 98.1824 170.775 98.0456 170.286 97.934C170.24 97.923 170.195 97.908 170.148 97.898C169.135 97.6769 168.102 97.5646 167.065 97.563H158.745L158.724 97.546C158.239 97.112 157.735 96.701 157.215 96.308C157.009 96.152 156.791 96.008 156.58 95.863C156.255 95.634 155.931 95.405 155.595 95.192C155.318 95.017 155.031 94.858 154.747 94.692C154.463 94.526 154.185 94.369 153.897 94.219C153.567 94.047 153.23 93.889 152.891 93.733C152.64 93.617 152.391 93.502 152.131 93.395C151.754 93.237 151.372 93.0893 150.986 92.952C150.762 92.872 150.536 92.7956 150.309 92.723C149.886 92.585 149.461 92.457 149.028 92.344C148.836 92.294 148.642 92.251 148.448 92.206C147.976 92.095 147.503 91.991 147.021 91.906C146.879 91.882 146.735 91.867 146.592 91.846C145.425 91.6617 144.246 91.5654 143.065 91.558H39.065C35.0638 91.5579 31.1298 92.5869 27.641 94.546L27.495 94.627C26.024 95.454 24.6461 96.4367 23.385 97.558H15.065C12.3749 97.556 9.73737 98.3034 7.44824 99.7164C5.15911 101.129 3.30888 103.152 2.10501 105.558H2.142C1.27636 107.258 0.75827 109.113 0.618011 111.015L14.57 125.315L13.405 126.452C13.956 126.517 14.5102 126.55 15.065 126.552H15.565V132.724L18.765 129.608L34.975 146.225L22.352 158.538C23.7726 159.983 25.3735 161.238 27.115 162.274L39.164 150.52L55.374 167.137L38.757 183.347L38.698 183.287L43.085 196.376L54.861 208.449L49.036 214.132L51.153 220.448L59.053 212.748L75.263 229.365L59.338 244.901L64.438 260.125L74.738 270.686L71.954 273.401C73.5689 274.7 75.3454 275.785 77.239 276.628L78.927 274.98L82.202 278.338C85.287 279.113 88.4607 279.477 91.641 279.422L83.222 270.791L99.84 254.581L103.846 258.688L98.965 273.263C98.2308 275.446 97.0604 277.457 95.525 279.173C103.876 278.161 111.568 274.273 114.996 267.53C115.071 267.385 115.144 267.239 115.215 267.092C115.305 266.903 115.394 266.714 115.476 266.521C115.654 266.112 115.821 265.696 115.966 265.265L116.652 263.217L124.946 238.474L127.089 232.079L129.118 226.025L130.044 223.264L149.704 164.601C149.984 164.519 150.254 164.414 150.53 164.321C156.297 162.386 161.092 158.293 163.908 152.901C164.122 152.489 164.324 152.07 164.515 151.645C164.628 151.393 164.729 151.136 164.833 150.879C164.937 150.622 165.044 150.354 165.141 150.087C165.232 149.837 165.32 149.587 165.403 149.333C165.512 148.999 165.61 148.66 165.703 148.319C165.756 148.129 165.816 147.941 165.864 147.749C165.994 147.228 166.102 146.699 166.197 146.165C166.23 145.98 166.255 145.794 166.283 145.608C166.346 145.197 166.398 144.784 166.439 144.367C166.456 144.187 166.475 144.008 166.489 143.827C166.532 143.243 166.562 142.655 166.562 142.06V126.56H167.062C170.34 126.561 173.521 125.452 176.087 123.412C178.653 121.372 180.451 118.523 181.189 115.329C181.926 112.136 181.56 108.786 180.148 105.828C178.737 102.87 176.364 100.477 173.418 99.041L173.421 99.044ZM132.705 172.601L132.342 173.684L121.375 184.384L105.165 167.766L121.783 151.556L137.992 168.174L133.849 172.215C133.465 172.349 133.093 172.489 132.705 172.601ZM116.432 221.151L104.652 209.076L121.27 192.866L124.725 196.408L116.432 221.151ZM117.593 147.26L100.976 163.471L84.765 146.854L101.382 130.644L117.593 147.26ZM105.678 126.453L122.296 110.243L138.505 126.86L121.888 143.07L105.678 126.453ZM80.578 142.553L64.365 125.942L80.983 109.732L97.193 126.35L80.578 142.553ZM96.683 167.653L80.065 183.871L63.855 167.254L80.472 151.044L96.683 167.653ZM100.872 171.948L117.082 188.565L100.465 204.783L84.255 188.166L100.872 171.948ZM125.572 188.67L128.172 186.131L126.872 190.007L125.572 188.67ZM142.294 163.976L126.084 147.359L142.702 131.149L149.572 138.192V150.055C149.57 152.899 149.049 155.719 148.035 158.377L142.294 163.976ZM153.894 134.029L146.994 126.959L162.201 112.125C163.453 114.036 164.234 116.217 164.481 118.488C164.729 120.759 164.435 123.056 163.625 125.192C162.814 127.328 161.51 129.242 159.818 130.777C158.126 132.312 156.094 133.425 153.89 134.025L153.894 134.029ZM141.745 105.563H150.065C152.863 105.561 155.601 106.373 157.945 107.9L142.8 122.673L126.591 106.055L132.362 100.426C135.844 101.392 139.055 103.151 141.745 105.563ZM124.654 99.563L122.401 101.763L120.257 99.563H124.654ZM111.876 99.563L118.106 105.95L101.489 122.16L85.279 105.543L91.409 99.563H111.876ZM82.816 99.563L81.089 101.248L79.445 99.563H82.816ZM71.064 99.563L76.794 105.437L60.177 121.647L43.965 105.03L49.565 99.563H71.064ZM40.979 99.563L39.779 100.735L38.636 99.563H40.979ZM3.67902 105.563H6.388C10.6926 101.692 16.2791 99.5546 22.068 99.563H30.255L35.486 104.924L18.865 121.134L3.67902 105.563ZM23.058 125.429L39.675 109.219L55.885 125.837L39.265 142.046L23.058 125.429ZM43.458 146.341L60.076 130.131L76.285 146.749L59.665 162.959L43.458 146.341ZM42.945 187.653L59.563 171.443L75.773 188.06L59.155 204.27L42.945 187.653ZM63.345 208.565L79.962 192.355L96.172 208.973L79.554 225.183L63.345 208.565ZM79.045 266.494L62.835 249.877L79.452 233.667L95.662 250.284L79.045 266.494ZM83.745 229.477L100.363 213.267L114.293 227.548L112.022 234.324L99.955 246.095L83.745 229.477ZM104.145 250.39L107.845 246.777L105.996 252.291L104.145 250.39Z" fill="#F9697E"/>
<path opacity="0.3" d="M99.565 278.441C86.505 281.611 70.165 277.221 66.165 265.261L32.425 164.601C27.5581 163.167 23.2859 160.197 20.247 156.135C17.208 152.072 15.5655 147.135 15.565 142.061V126.561H15.065C11.8992 126.562 8.82001 125.527 6.29775 123.613C3.77549 121.7 1.94874 119.014 1.09639 115.965C0.24405 112.916 0.412948 109.672 1.57735 106.728C2.74175 103.784 4.83766 101.302 7.545 99.661C7.595 99.861 7.65499 100.061 7.72499 100.261C10.1647 99.138 12.8192 98.5579 15.505 98.561H26.785C23.6404 99.7935 21.0248 102.085 19.3895 105.04C17.7541 107.996 17.2017 111.429 17.8276 114.748C18.4535 118.067 20.2183 121.063 22.8176 123.22C25.4169 125.377 28.6875 126.558 32.065 126.561H32.565V142.061C32.5655 147.135 34.208 152.072 37.247 156.135C40.2859 160.197 44.5581 163.167 49.425 164.601L83.165 265.261C85.485 272.201 91.975 276.601 99.565 278.441Z" fill="white"/>
<path d="M173.834 94.309C173.598 96.0899 173.025 97.8096 172.145 99.376C170.371 98.8333 168.526 98.5593 166.671 98.563H156.507C154.967 98.5629 153.442 98.8661 152.019 99.4554C150.596 100.045 149.303 100.909 148.213 101.998C147.124 103.087 146.26 104.38 145.671 105.803C145.081 107.226 144.778 108.751 144.778 110.291V121.624C144.816 125.291 143.447 128.834 140.954 131.523C138.46 134.213 135.031 135.845 131.371 136.084C131.152 136.094 130.933 136.094 130.714 136.094C128.865 136.095 127.034 135.732 125.325 135.025C123.617 134.318 122.064 133.282 120.756 131.975C119.448 130.668 118.41 129.116 117.702 127.408C116.994 125.7 116.629 123.869 116.629 122.02V106.162C116.639 105.167 116.451 104.18 116.076 103.257C115.702 102.335 115.148 101.497 114.447 100.79C113.747 100.083 112.913 99.5222 111.994 99.1398C111.075 98.7574 110.089 98.561 109.094 98.562C107.201 98.624 105.406 99.4196 104.088 100.781C102.77 102.142 102.034 103.962 102.033 105.856V139.479C102.061 141.413 101.386 143.291 100.134 144.766C98.8821 146.24 97.1379 147.211 95.225 147.497C94.1219 147.64 93.0011 147.546 91.9372 147.221C90.8733 146.897 89.8908 146.349 89.0552 145.615C88.2197 144.881 87.5502 143.977 87.0915 142.964C86.6327 141.951 86.3953 140.851 86.395 139.739V107.08C86.3947 104.821 85.4972 102.655 83.8998 101.057C82.3024 99.4603 80.136 98.563 77.877 98.563H15.501C12.8159 98.5578 10.162 99.1379 7.724 100.263C7.38166 99.3152 7.19165 98.3192 7.16101 97.312C7.11935 95.9857 7.34457 94.6645 7.82333 93.4269C8.30209 92.1894 9.02463 91.0606 9.94803 90.1076C10.8714 89.1546 11.9769 88.3969 13.1988 87.8794C14.4206 87.3619 15.734 87.0951 17.061 87.095C17.249 87.095 17.426 87.095 17.614 87.106C16.8963 82.971 16.537 78.7818 16.54 74.585C16.54 54.9534 24.3386 36.1259 38.2202 22.2442C52.1019 8.3626 70.9294 0.56398 90.561 0.56398C110.193 0.56398 129.02 8.3626 142.902 22.2442C156.783 36.1259 164.582 54.9534 164.582 74.585C164.582 75.94 164.541 77.295 164.468 78.63C167.579 79.789 170.203 81.9739 171.905 84.8242C173.608 87.6745 174.288 91.02 173.834 94.309Z" fill="#F9697E"/>
<path opacity="0.15" d="M173.835 94.313C173.601 96.0923 173.027 97.8101 172.145 99.373C170.372 98.8328 168.528 98.5598 166.675 98.563H156.505C154.965 98.5627 153.439 98.8659 152.016 99.4553C150.593 100.045 149.299 100.909 148.21 101.998C147.121 103.087 146.257 104.381 145.667 105.804C145.078 107.227 144.775 108.752 144.775 110.293V121.623C144.814 125.289 143.446 128.831 140.954 131.521C138.462 134.21 135.034 135.843 131.375 136.083C131.155 136.093 130.935 136.093 130.715 136.093C126.981 136.095 123.399 134.614 120.757 131.976C118.114 129.337 116.628 125.757 116.625 122.023V120.743C117.638 120.977 118.675 121.094 119.715 121.093C119.935 121.093 120.155 121.093 120.375 121.083C124.034 120.843 127.462 119.21 129.954 116.521C132.446 113.831 133.814 110.289 133.775 106.623V95.293C133.775 93.7525 134.078 92.2271 134.667 90.8038C135.257 89.3805 136.121 88.0873 137.21 86.998C138.299 85.9087 139.593 85.0447 141.016 84.4553C142.439 83.8659 143.965 83.5627 145.505 83.563H155.675C157.528 83.5598 159.372 83.8328 161.145 84.373C162.027 82.8101 162.601 81.0923 162.835 79.313C163.29 76.0246 162.611 72.6794 160.909 69.829C159.207 66.9786 156.585 64.7931 153.475 63.633C153.545 62.293 153.585 60.943 153.585 59.583C153.606 47.0281 150.415 34.6766 144.315 23.703C157.354 37.431 164.612 55.6494 164.585 74.583C164.585 75.943 164.545 77.293 164.475 78.633C167.585 79.7931 170.207 81.9786 171.909 84.829C173.611 87.6794 174.29 91.0246 173.835 94.313Z" fill="#4E385E"/>
<path d="M120.765 71.198C131.7 71.198 140.565 62.3332 140.565 51.398C140.565 40.4627 131.7 31.598 120.765 31.598C109.83 31.598 100.965 40.4627 100.965 51.398C100.965 62.3332 109.83 71.198 120.765 71.198Z" fill="white"/>
<path d="M120.765 64.598C128.055 64.598 133.965 58.6881 133.965 51.398C133.965 44.1078 128.055 38.198 120.765 38.198C113.475 38.198 107.565 44.1078 107.565 51.398C107.565 58.6881 113.475 64.598 120.765 64.598Z" fill="#4E385E"/>
<path d="M124.725 50.078C128.37 50.078 131.325 47.1231 131.325 43.478C131.325 39.8329 128.37 36.878 124.725 36.878C121.08 36.878 118.125 39.8329 118.125 43.478C118.125 47.1231 121.08 50.078 124.725 50.078Z" fill="white"/>
<path d="M122.085 59.318C123.543 59.318 124.725 58.136 124.725 56.678C124.725 55.2199 123.543 54.038 122.085 54.038C120.627 54.038 119.445 55.2199 119.445 56.678C119.445 58.136 120.627 59.318 122.085 59.318Z" fill="white"/>
<path d="M61.365 73.527C72.3002 73.527 81.165 64.6622 81.165 53.727C81.165 42.7917 72.3002 33.927 61.365 33.927C50.4298 33.927 41.565 42.7917 41.565 53.727C41.565 64.6622 50.4298 73.527 61.365 73.527Z" fill="white"/>
<path d="M61.365 66.927C68.6552 66.927 74.565 61.0171 74.565 53.727C74.565 46.4368 68.6552 40.527 61.365 40.527C54.0748 40.527 48.165 46.4368 48.165 53.727C48.165 61.0171 54.0748 66.927 61.365 66.927Z" fill="#4E385E"/>
<path d="M65.325 52.407C68.9701 52.407 71.925 49.4521 71.925 45.807C71.925 42.1619 68.9701 39.207 65.325 39.207C61.6799 39.207 58.725 42.1619 58.725 45.807C58.725 49.4521 61.6799 52.407 65.325 52.407Z" fill="white"/>
<path d="M62.685 61.647C64.143 61.647 65.325 60.465 65.325 59.007C65.325 57.5489 64.143 56.367 62.685 56.367C61.227 56.367 60.045 57.5489 60.045 59.007C60.045 60.465 61.227 61.647 62.685 61.647Z" fill="white"/>
<path opacity="0.25" d="M138.655 18.313C133.371 17.1491 127.976 16.5624 122.565 16.563C102.934 16.563 84.1064 24.3615 70.2249 38.2429C56.3435 52.1244 48.545 70.9517 48.545 90.583C48.5415 93.2489 48.685 95.9129 48.975 98.563H15.505C12.8187 98.5549 10.1631 99.1352 7.72499 100.263C7.3855 99.3149 7.19654 98.3195 7.16499 97.313C7.12209 95.9862 7.34645 94.6644 7.82472 93.4261C8.303 92.1878 9.02541 91.0583 9.94902 90.1048C10.8726 89.1514 11.9786 88.3934 13.201 87.876C14.4235 87.3586 15.7375 87.0923 17.065 87.093C17.255 87.093 17.435 87.093 17.615 87.103C16.8976 82.9684 16.5397 78.7794 16.545 74.583C16.545 60.436 20.5991 46.5853 28.2272 34.671C35.8554 22.7568 46.738 13.278 59.5864 7.3573C72.4349 1.43656 86.7109 -0.678205 100.724 1.26344C114.737 3.20509 127.9 9.12182 138.655 18.313Z" fill="white"/>
<path d="M99.234 74.372C106.468 74.372 110.326 83.124 105.262 88.289C103.411 90.1772 101.202 91.6773 98.7644 92.7013C96.3266 93.7254 93.7091 94.2528 91.065 94.2528C88.4209 94.2528 85.8034 93.7254 83.3656 92.7013C80.9279 91.6773 78.7189 90.1772 76.868 88.289C71.804 83.124 75.662 74.372 82.896 74.372H99.234Z" fill="#C64A65"/>
<path opacity="0.5" d="M59.79 196.841L81.065 260.001" stroke="white" stroke-width="6" stroke-linecap="round" stroke-linejoin="round"/>
<path opacity="0.5" d="M52.714 176.865L56.967 189.492" stroke="white" stroke-width="6" stroke-linecap="round" stroke-linejoin="round"/>
<path opacity="0.5" d="M49.065 165.001L49.405 166.01" stroke="white" stroke-width="6" stroke-linecap="round" stroke-linejoin="round"/>
<path opacity="0.5" d="M44.732 112.001H76.065" stroke="white" stroke-width="6" stroke-linecap="round" stroke-linejoin="round"/>
<path opacity="0.5" d="M22.065 112.001H29.565" stroke="white" stroke-width="6" stroke-linecap="round" stroke-linejoin="round"/>
</svg>
